# xmcd
#
# Track frame offsets: 
#        150
#        15987
#        33081
#        50717
#        69496
#        88632
#        104368
#        120328
#        138457
#        155597
#        172793
#        188280
#        205996
#        222694
#        237265
#
# Disc length: 3400 seconds
#
# Revision: 1
# Processed by: cddbd v1.5.2PL0 Copyright (c) Steve Scherf et al.
# Submitted via: ExactAudioCopy v1.3
#
DISCID=c30d460f
DTITLE=Roland Kaiser - Seelenbahnen
DYEAR=2014
DGENRE=Schlager
TTITLE0=Sag bloß nicht Hello
TTITLE1=Seelenbahnen
TTITLE2=All die Jahre
TTITLE3=Ich weiss alles
TTITLE4=Ich fege die Sterne zusammen
TTITLE5=Du bist ein Engel
TTITLE6=Roland Kaiser and Maite Kelly - Warum hast du nicht nein gesagt
TTITLE7=Josephine
TTITLE8=Liebe verlernt man nicht
TTITLE9=Meine Welt hat zwei Gesichter
TTITLE10=Ich bereue nichts
TTITLE11=Nie wieder vielleicht
TTITLE12=Als ich noch Single war
TTITLE13=Es wird langsam Zeit für mich zu geh'n
TTITLE14=Und sie war die Musik
EXTD=
EXTT0=
EXTT1=
EXTT2=
EXTT3=
EXTT4=
EXTT5=
EXTT6=
EXTT7=
EXTT8=
EXTT9=
EXTT10=
EXTT11=
EXTT12=
EXTT13=
EXTT14=
PLAYORDER=
